<svg height="202.57" viewBox="0 0 192.537 202.567" width="192.54" xmlns="http://www.w3.org/2000/svg"><g transform="matrix(1.25 0 0 -1.25 -283.07625 596.55625)"><path d="m303.46 316.37c-15.378-.069-27.167 4.322-32.811 7.3-11.054 5.803-20.165 13.486-28.006 24.15-11.273 15.287-13.453 27.595-14.353 34.299-.526 3.49-1.153 11.879.024 19.404 1.33 10.859 3.801 16.267 5.566 21.56 1.37 3.763 5.801 12.819 8.426 16.972 2.235 3.255 6.311 9.253 7.974 11.371.457.665-.135.35-.384.344-.612-.149-.925-.186-1.397-.149-.35 0-1.058.118-1.448.235-2.197.468-5.333 2.9-4.94 7.136-.08.94.94 9.014 1.725 11.524 1.018 3.526 3.135 5.173 6.901 5.488 1.88 0 9.796.157 13.395-.404 7.202-.716 12.475-2.812 15.61-9.162 2.508-5.566 1.648-14.269-1.801-20.932-1.177-2.273-3.532-6.508-5.57-9.251-1.88-2.743-2.665-4.158-4.311-7.213-1.648-3.213-7.136-15.209-9.016-23.048-3.579-14.63-1.568-23.05 5.331-34.498 5.098-7.603 11.056-13.094 15.679-15.602 7.608-4.781 17.994-6.116 23.405-6.116 5.408 0 15.797 1.335 23.402 6.116 4.623 2.508 10.584 7.998 15.677 15.602 6.903 11.448 8.91 19.868 5.333 34.498-1.88 7.839-7.371 19.835-9.016 23.048-1.645 3.056-2.43 4.47-4.313 7.213-2.038 2.743-4.388 6.978-5.566 9.251-3.45 6.663-4.311 15.367-1.801 20.932 3.133 6.351 8.408 8.446 15.61 9.162 3.594.561 11.515.404 13.395.404 3.765-.315 5.881-1.962 6.901-5.488.785-2.51 1.803-10.584 1.725-11.524.39-4.235-2.745-6.668-4.943-7.136-.388-.118-1.095-.235-1.45-.235-.468-.038-.783 0-1.395.149-.251.007-.838.322-.386-.344 1.663-2.118 5.743-8.116 7.976-11.371 2.628-4.153 7.056-13.209 8.431-16.972 1.763-5.293 4.231-10.701 5.566-21.56 1.175-7.526.548-15.914.02-19.404-.9-6.703-3.078-19.012-14.353-34.299-7.841-10.663-16.95-18.347-28.006-24.15-5.643-2.978-17.431-7.229-32.809-7.3" fill="#fff"/><path d="m303.37 331.48c1.02 0 1.845.825 1.845 1.843 0 1.02-.825 1.847-1.845 1.847-1.018 0-1.845-.827-1.845-1.847 0-1.018.827-1.843 1.845-1.843zm-49.109 23.362c1.018 0 1.845.825 1.845 1.845s-.827 1.847-1.845 1.847c-1.02 0-1.845-.827-1.845-1.847s.825-1.845 1.845-1.845zm-10.976 42.647c1.02 0 1.845.827 1.845 1.845 0 1.022-.825 1.847-1.845 1.847-1.018 0-1.845-.825-1.845-1.847 0-1.018.827-1.845 1.845-1.845zm21.64 50.177c1.018 0 1.845.825 1.845 1.845s-.827 1.845-1.845 1.845c-1.022 0-1.847-.825-1.847-1.845s.825-1.845 1.847-1.845zm89.585-90.98c0 1.02-.827 1.847-1.845 1.847s-1.845-.827-1.845-1.847.827-1.845 1.845-1.845 1.845.825 1.845 1.845zm10.978 42.647c0 1.022-.827 1.847-1.847 1.847s-1.847-.825-1.847-1.847c0-1.018.827-1.845 1.847-1.845s1.847.827 1.847 1.845zm-21.637 50.177c0 1.02-.829 1.845-1.847 1.845-1.02 0-1.845-.825-1.845-1.845s.825-1.845 1.845-1.845c1.018 0 1.847.825 1.847 1.845zm-74.773-120.67c-10.036 5.956-19.129 13.482-27.91 27.968-3.92 7.153-13.016 22.362-8.533 48.86 5.175 24.227 15.588 36.458 21.544 44.847 2.823 4.076-.075 6.428-2.35 5.566-1.907-.723-3.215-.769-3.215-.769-3.37.457-2.898 2.65-2.273 8.375l.785 4.703c.703 4.155 2.586 4.078 7.526 3.983 7.841-.155 9.249-.22 13.486-1.002 5.646-1.255 13.012-6.901 7.211-22.422-3.606-8.311-7.368-11.131-11.448-19.757-4.388-9.566-15.049-31.046-7.839-49.392 9.881-24.617 29.008-33.398 47.197-33.713 18.189.237 39.201 10.978 47.605 33.713 7.211 18.347-3.45 39.827-7.841 49.392-4.076 8.626-7.839 11.446-11.446 19.757-5.801 15.522 1.57 21.167 7.213 22.422 4.233.783 5.643.847 13.484 1.002 4.938.095 6.823.173 7.526-3.982l.787-4.703c.628-5.725 1.095-7.918-2.275-8.375 0 0-1.311.047-3.215.769-2.271.863-5.175-1.49-2.353-5.566 5.958-8.388 16.371-20.62 21.544-44.847 4.488-26.498-4.61-41.707-8.53-48.86-8.779-14.486-17.872-22.012-27.91-27.968-13.735-9.568-39.45-9.016-34.509-8.706 5.173-.392-18.894-1.018-34.261 8.706" fill="#002c5f"/></g></svg>