<svg height="100.84" viewBox="0 0 158.168 100.937" width="158.17" xmlns="http://www.w3.org/2000/svg"><g transform="matrix(.5 0 0 .5 .508 .336)"><path d="m303.99 88.5c-2.68-2.41-4.87-3.74-5.56-4.33-3.96-3.16-.642-.642-4.44-3.1-2.73-1.71-3.48-3.1-6.26-4.65-4.98-2.84-5.51-3.64-9.52-8.45-3.48-6.37-8.88-7.28-14.3-8.51-5.24-1.18-8.99-5.35-9.9-6.79-2.78-4.55-7.33-6.74-9.74-8.08-7.44-4.07-16-3.37-22.7-9.36-10.1-7.17-12.8-5.83-23.4-6.15-5.88-.16-13.5-3.91-16-5.99-2.09-1.77-4.55-2.89-6.69-3.58-7.49-2.3-12.6 1.66-23.1-3.42-3.05-1.5-5.83-3.53-8.83-5.3-1-.77-2-1.3-5-1.94-6-1.18-11-.43-17 .16-4 .26-5-1.4-8-2.95-3-1.44-6-2.51-9-3.15-4.9-.86-10.1-.27-15.4.8-10.5 2.09-20-3.21-30.2-2.25-1.7.16-5 2.3-6.2 4.71-1.5 3.21-1.5 5.08-1.28 8.29.321 4.33.802 4.65 1.66 7.44 1.82 6.1 2.78 9.42 4.23 13.5 1.71 4.76 1.66 10.6-2.41 12.5-1.93.91-5.19.91-7.01-.482-2.84-2.19-4.39-5.19-7.6-5.83-4.28-.856-9.42 3.53-14 4.76-4.55 1.18-5.14-1.28-8.29-2.73-2.09-.963-4.12.428-5.3 1.12-2.14 1.18-2.62 3.64-3.16 6.26-.374 2.09-.588 4.01-.054 6.31.749 3.32 1.87 5.3 1.93 7.6.214 5.78-.749 10.1-3.1 13.1-1.5 1.93-3.53 7.33-4.12 9.31-2.09 6.63-1.87 5.51-2.89 11.7-.535 3.16-.428 6.69-.696 9.63-.054.535.374 7.22.696 9.26.802 4.98 1.71 8.13 2.78 12.3 1.5 6.05 2.14 9.79 1.98 14.4-.16 4.76-3.16 9.26-.321 12.6 1.77 2.09 6.42 3.96 10.2 2.3 3.85-1.71 6.63-3.69 9.63-4.12 5.51-.749 9.1 1.6 11.5 1.34 2.14-.268 5.83-2.35 7.6-2.51 1.39-.107 4.44-.268 5.51.535 1.71 1.28 2.73 2.68 2.46 7.01 0 .054-1.02 4.65-1.02 4.71-1.77 5.72-3.64 11.1-4.55 15-.963 4.12-5.46 13.1 3.69 16.7 3.85 1.55 7.92 1.23 13-.054 2.57-.642 3.64-.749 6.05-1.18 0-.16 3.58-.107 3.58-.268l3.21-.16c5.67-.642 7.01-.268 12 .428 4.71.588 9.2 1.5 13.9.963 2.35-.268 4.65-.696 6.9-1.44 6.53-2.09 9.58-4.92 17.4-5.99 6.53-.91 6.53.214 12.3-.054 5.99-.268 9.31-2.84 11.8-4.23 3.05-1.66 3.85-1.82 5.88-2.89 7.38-3.96 16.1-3.48 24.4-5.51 5.83-1.44 8.13-4.17 14.7-5.94 2.62-.696 5.46-.642 8.24-1.02 2.14-.321 5.88-2.19 7.97-4.12 3.58-3.32 3.21-3.48 5.99-5.03 4.65-2.62 9.95-2.57 14.7-4.76 4.39-2.03 8.88-3.74 12.3-7.22 5.03-5.08 13-6.53 19.5-8.88 3.85-1.39 8.93-3.91 13.2-11.2 4.17-7.17 7.86-8.24 15.2-10.4 4.92-1.5 7.06-2.51 10.9-6.1 3.42-3.21 4.65-5.3 6.21-7.54 1.77-2.57 5.19-6.85 1.55-10.1-1.6-1.44-3.26-4.07-6.69-6.74"/><path d="m299 94.7c-4.28-3.05-4.65-3.58-6.9-5.08-5.78-3.85-6.9-4.71-9.74-7.97-2.78-3.16-3.53-4.23-6.69-5.94-1.18-.696-9.15-3.42-7.7-3.16-7.28-1.28-7.54-2.84-10.4-5.51-2.41-3.48-5.24-7.65-7.7-9.26.963.588-4.44-2.94-4.39-2.84-4.12-1.44-5.56-1.07-10.8-1.28.16 0-5.67-.802-7.17-1.5-2.68-1.18-4.12-2.57-5.94-3.96-4.07-3.05-2.94-2.35-6.96-5.3-5.46-3.96-6.15-3-13.1-3.69-5.88-.588-10.1-1.98-14.7-5.3-8.19-5.94-16.2-3.85-21.2-4.6-7.22-1.07-12.3-4.01-15-5.72-5.83-3.69-4.49-1.98-10.7-4.87-7.44-3.53-14.4 2.35-23.1-.107-4.6-1.28-6.31-3.69-9.26-4.76-8.9-2.6-11.9-1.2-19.1-1.1-8.6 0-16.3-2.3-24.5-2.2-2.3 0-4.07 1.93-3.74 4.55 0 0 .107 3.16.107 3.21.428 2.62 1.39 5.4 2.19 8.29 1.02 3.53 1.55 4.71 3 10.3.535 4.49 0 5.72-.321 7.65-.268 1.55-1.28 4.6-2.03 5.72-.856 1.28-1.98 1.77-3.48 2.68-2.57 1.55-5.24 2.25-8.02 2.19-2.89-.107-2.14-.107-6.69-1.77-1.66-.642-5.08-2.57-8.51-1.12-6.58 2.78-7.33.482-10.9.749-1.07.054-2.14.588-3.16 1.07-1.66.696-2.41 1.77-3.48 3.96-.642 1.34-1.12 3.53-.856 5.51-.374 0 .642 3.1.642 3.21.802 4.23 1.02 7.54-.588 11.3-1.55 3.53-1.98 4.76-3.96 7.65-1.93 2.78-5.3 10.8-5.56 18.2.268-.268-.054 8.77 1.02 14.1 1.18 5.88 2.89 6.37 3.26 16.1.16 3.69-.214 6.9-.321 10.2-.054 2.14.642 5.14 3.32 4.71 3.85-.588 8.19-2.73 11.2-2.84 1.5-.054 4.07.428 5.14.749 6.1 2.14 4.07.535 13.6-1.12 3.16-.588 7.54.107 9.26 1.12 5.62 3.26 5.14 10.4 3.53 17.5-.268 1.12-1.66 8.56-1.98 9.68-.963 3.74-.856 3.96-1.34 7.97-.214 1.93-.107 3.42.963 5.19.91 1.44 1.93 2.46 3.32 2.46 6.21.16 9.63 0 16-1.12 8.24-1.5 12.4-1.5 18.1-.963 5.83.535 14.1.374 17.5-.91 3.1-1.12 7.22-3.53 10.5-4.23 10.8-2.3 11.2-1.23 20-2.35 7.01-.91 10.6-4.44 14.2-6.31 4.92-2.62 9.26-3.53 14.9-3.53 3.32 0 8.08-1.12 10.4-2.19 9.31-4.23 5.83-3.96 18.8-6.37 6.58-1.23 11.3-6.47 15.4-8.72 2.62-1.5 4.92-2.68 7.86-3.58 3.96-1.18 8.4-1.82 12.2-3.1 6.1-2.14 7.97-4.23 11.3-7.22 2.78-2.51 3.69-2.46 6.79-4.39 3.16-1.98 7.76-3.42 9.52-3.96 4.01-1.23 9.9-7.97 15.4-13.5 6.47-6.63 12.5-5.51 19.7-9.36 4.39-2.3 7.22-3.85 5.19-8.02-.802-1.66-3-3.69-4.76-4.92" fill="#fff"/><path d="m153.1 127.7c-13.6-10.6-9.74-20.1-4.01-24.5l1.71 1.87-2.89 3.05.214 11h39.2l5.03-4.82v-12h-3l-13.6-14.6c26.1-5.56 38.9 5.83 46.6 18.4h10.2l5.19-5.03v-29h-10.9l-6.53 4.01c-23-11.2-41-10-59-4.1l-2.94-3 16.6-9.9 10-.054 4.92-4.65v-9.84h-40l-4.23 4.33v6.74l-37.5 21.5v-16.5l6.05-6.1v-9.95h-39.3l-5.35 6.26v7.86h6.42v42.5h-1.98s-5.24 5.94-4.98 6.05v11h41.4l4.12-3.85v-13.2h-6.1v-3.37l22.8-13.1 1.93 1.98c-5.08 3.58-9.1 6.96-12.1 12.3-4.49 7.44-6.1 17.8-3.48 26.1 1.71 5.56 3.85 8.93 7.6 12.8 3.58 3.69 6.63 5.83 12.5 8.61 4.82 2.41 16.1 5.83 24.9 6.74 8.51.642 19.2.535 26.2-.374 7.7-.802 15.7-3.58 20.5-5.56 3.85-1.87 8.13-3.58 11.4-6.15 8.24-5.94 17-14.9 17.1-26.1h-15.4c-4.82 17.2-51.4 25-70.1 11.7" stroke="#000"/><path d="m188.69 47.182-36.984.053v6.414h4.328l-48.902 27.898v-27.846l6.092-.053v-6.414h-35.861v6.414h6.092v51.254h-6.092v7.375h35.861v-7.375h-5.824v-8.658l27.791-15.928 23.037 24.533-5.133-.055v7.482h37.199v-7.428h-1.176l-33.725-36.396 25.066-14.752 8.231-.107v-6.412zm.199 23.074c-11.618-.079-19.879 2.706-23.877 3.969l9.568 10.475c20.576-4.917 42.646.214 52.32 14.803l9.303-.104.105-25.709h-8.551l-6.092 4.01c-12.673-5.588-23.741-7.382-32.777-7.443zm38.012 29.246-.211.002h.213c-.001-.001-.001-.001-.002-.002zm-90.21-10.26c-8.551 5.826-11.436 11.277-13.307 16.568-1.443 4.383-3.475 13.309.641 21.646 5.024 8.658 13.148 13.683 18.6 15.66 8.926 3.741 23.354 7.161 39.709 6.52 11.705-.267 21.914-2.405 31.748-7.322 5.719-3.046 6.895-3.74 12.613-9.031 4.276-4.917 7.748-7.963 9.191-15.553h-9.834c-3.955 6.52-9.406 11.703-21.912 15.391l.107.055c-24.158 7.162-47.408 3.582-57.723-9.139-8.551-9.834-4.543-18.494.908-23.197l-10.75-11.588z" fill="#e31837" stroke="#e31837" stroke-width=".534" transform="matrix(1.001 0 0 1.001 -.158 0)"/></g></svg>