<svg height="150.02" viewBox="0 0 192.897 150.011" width="192.89" xmlns="http://www.w3.org/2000/svg"><g transform="translate(1.095 .9)"><path d="m64.75.014c-7.047.145-13.826 2.328-18.945 6.242v-4.986h-45.799l-.01 26.193h10.656c2.195 0 3.969 1.782 3.969 3.971v74.301h31.199v-69.426l.002-.73h.004c.003-4.157 3.525-7.531 7.873-7.531 4.283 0 7.761 3.286 7.856 7.371v56.627c0 1.655.315 3.229.857 4.69 1.909 5.136 6.831 8.799 12.625 8.799h29.27v-25.123l-.613-.004h-6.781-.002c-2.188-.001-3.965-1.772-3.965-3.963v-.549c-.003-.056-.006-.106-.006-.166.003-.922.003-1.869.006-2.822v-19.049c-.003-2.304-.006-3.731-.006-3.731l.006-5.992v-22.639c-.044-.658-.152-1.662-.416-2.872-.454-2.063-1.355-4.726-3.158-7.359-3.762-5.487-8.543-8.477-14.976-10.155-3.184-.804-6.442-1.159-9.645-1.093zm33.732 1.258v26.117h8.141c2.188 0 3.959 1.777 3.959 3.969v51.068c.524 8.409 5.519 16.1 11.867 19.705 6.39 5.054 21.889 7.367 30.26 4.414 0 0 3.865-1.216 6.041-2.668v6.481c0 1.546-.119 2.511-.539 3.715-1.063 2.292-3.395 3.495-7.098 3.586l-136.51-.006v30.369h147.96c4.502-.232 8.74-.742 12.305-1.748 4.872-1.489 16.025-6.715 16.025-23.234 0-.241-.004-6.318-.01-6.563h-.002l-.078-115.2h-31.947v67.061c0 .809-.014 1.614-.055 2.404-.013.314-.032.62-.057.928-.31 2.439-1.788 4.521-3.889 5.729-1.226.702-2.646 1.113-4.17 1.113-4.399 0-8.127-3.359-8.111-7.525l.041-69.711h-44.131z" fill="#a71930"/><path d="m64.932 4.408c-6.124.1-12.007 1.957-16.447 5.35l-7.08 5.422v-9.5h-36.996c0 4.866-.002 12.516-.002 17.379h6.248c4.618 0 8.371 3.755 8.371 8.373v69.893h22.389v-65.043s.004-.733.01-.705c.006-6.581 5.509-11.936 12.277-11.936 6.615 0 12.116 5.239 12.264 11.775v56.627c0 1.06.194 2.126.58 3.154 1.317 3.546 4.732 5.926 8.494 5.926h24.861v-16.307h-2.988c-4.615 0-8.371-3.758-8.371-8.373h.002v-.439c-.003-.094-.006-.188-.006-.188l.006-2.91v-19.039s-.006-3.725-.006-3.75l.006-5.982v-22.406c-.031-.198-.313-2.16-.313-2.16-.472-2.127-1.311-4.082-2.496-5.809-3.006-4.386-6.733-6.894-12.418-8.377-2.769-.701-5.603-1.018-8.386-.973zm98.324 1.27v62.656l-.057 2.627-.074 1.129-.02.125c-.464 3.722-2.737 7.085-6.061 9.004-1.934 1.11-4.134 1.697-6.363 1.697-3.405 0-6.719-1.358-9.086-3.74-2.214-2.223-3.436-5.122-3.436-8.156 0-.013.04-57.604.043-65.338h-35.314v17.303h3.731c4.615 0 8.367 3.758 8.367 8.373v33.572 17.301c.43 6.584 4.292 13.035 9.635 16.07v-.002l.291.17.268.203c5.277 4.173 19.159 6.159 26.057 3.717l.141-.041c1.27-.404 3.73-1.336 4.918-2.139l6.857-4.588v14.736c0 1.803-.132 3.305-.787 5.174l-.066.199-.096.197c-1.254 2.706-4.178 5.969-11.094 6.139h-132.1v21.549c8.274.016 143.11 0 143.4 0 4.138-.216 8.025-.671 11.16-1.549 4.819-1.48 12.908-5.919 12.908-19.027 0 0-.076-109.21-.082-117.36h-23.141z" fill="#0b2265"/></g></svg>