<svg height="94.075" viewBox="0 0 193.091 94.075" width="193.09" xmlns="http://www.w3.org/2000/svg"><g transform="matrix(1.25 0 0 -1.25 -286.64 543.05)"><path d="m381 424.68c-19.236-4.543-20.077 6.598-49.007 8.641-38.941 2.75-71.664-14.216-97.815-16.39-5.681-.472-4.944-5.201-.862-6.003 9.856-2.3 20.027-2.008 29.336-.76-.313-.75-.627-1.906.413-2.792 3.687-3.134 18.508-3.402 25.014-3.028 2.209.126 6.925.572 6.925.572-1.345-.128-3.447-4.226.997-5.381 27.462-7.689 40.383-20.105 55.216-39.659 6.027.77 11.703 8.023 9.283 13.559l1.203 2.971 4.44 2.056-1.272 9.917 6.768 3.188s10.541 28.329 11.158 30.392-.66 2.985-1.797 2.716" fill="#fff"/><path d="m307.98 409.77c7.719.829 14.526.566 21.946-3.958-15.476 1.679-23.053-2.644-32.699-3.605 34.077-8.942 46.554-28.051 55.004-38.641 5.907 2.51 6.226 7.642 4.722 9.474l1.521 3.26.07 2.094 4.072 1.904-1.288 10.145 7.625 3.123 10.102 27.653c-17.116-3.551-22.661 7.517-47.013 9.027-9.92.616-18.853.16-27.239-.941l1.368-8.465c5.605.193 10.88-.519 15.887-2.797-5.504.341-10.456-.115-15.288-1.012l1.213-7.262" fill="#024"/><path d="m92.408 6.688c-29.967 4.245-54.536 14.904-86.764 19.254 36.362 5.995 64.919-7.456 88.719-8.862zm2.903 15.382c-15.648 3.124-29.863 9.482-48.856 9.998 22.034 4.153 37.308.47 50.473-1.082z" fill="#c60c30" transform="matrix(.8 0 0 -.8 229.31 434.44)"/><path d="m334.26 386.44c9.211-6.45 13.942-13.597 18.742-19.852 2.441 1.015 3.208 3.848 2.404 4.849l-2.325 2.861 2.644-.156 1.213 2.108-3.287.195-3.703-.668 3.755 2.572 2.859-.168.106 1.628-2.92 1.399 1.004 1.098 5.402-.337-1.553 12.031c-2.135.26-3.931-.859-4.707-3.947l-9.576.564c1.348 3.055 3.447 4.429 7.43 3.922-2.235 3.13-13.124 3.42-14.662-1.491l8.454-6.928 1.094-6.332-3.473 5.041c-3.123 2.704-6.403 4.599-8.901 1.613" fill="#b0b7bc"/><path d="m362.6 417.46.68-6.042 6.802-2.553-6.38-1.598.629-8.147-5.517 6.884-8.25-1.943 5.097 5.938-4.204 5.57 7.042-2.417 4.1 4.31" fill="#fff"/></g></svg>