<svg height="131.2" viewBox="0 0 190.567 131.201" width="190.57" xmlns="http://www.w3.org/2000/svg"><g transform="matrix(.3125 0 0 -.3125 0 189.055)"><path d="m355.26 573.93-29.726-31.156c48.693 20.232 154.87 54.967 154.87 54.967l-34.02-33.279c92.859 27.494 163.42 40.52 163.42 40.52s-20.448-47.587-50.997-95.24c5.909.638 44.481 5.133 44.481 5.133s-34.735-57.538-74.844-99.01l22.449-5.585s-34.977-50.405-81.139-91.548c-66.384-59.158-100.54-50.071-100.54-50.071-49.279-35.692-88.776-17.604-88.776-17.604s17.064 43.066-.566 47.638c-15.891 4.13-40.068-8.295-43.087-13.279-3.137-10.867-16.349-38.463-29.998-55.167-26.172-32.02-55.193-45.108-55.193-45.108s-22.86 19.507-23.009 52.714c0 0-15.701-16.632-41.261-22.068-17.892-3.806-42.31-.715-67.325 20.17-16.781 14.04-19.99 61.15-19.99 61.15s15.783 30.152 46.224 56.576c-6.737 5.781-10.867 13.053-12.163 17.542 80.913 35.316 80.969 69.028 145.3 110.01 63.376 40.377 103.2 58.942 175.91 92.71" fill="#fff"/><path d="m315.85 545.33-25.42-26.64c50.205 22.222 156.22 58.315 156.22 58.315l-30.77-30.101c108.7 33.655 177.65 45.057 177.65 45.057s-22.531-50.215-52.514-92.87c14.518 1.394 44.799 4.911 44.799 4.911s-30.281-50.734-75.034-93.708c4.973-.73 25.282-5.364 25.282-5.364s-26.99-40.047-73.898-81.123c-59.878-52.426-86.441-46.219-86.441-46.219s.576 2.047.519 5.23c-.041 1.759-.417 3.353-.432 3.482-46.095-43.38-84.497-28.743-84.497-28.743s17.049 41.277-9.103 49.608c-20.258 6.449-51.29-10.131-53.763-19.013-2.69-9.658-15.557-36.463-28.317-52.169-22.135-27.252-46.635-39.687-46.635-39.687s-22.274 17.136-14.549 67.289c1.687 10.929-.478 15.197-1.671 17.033-3.657 5.595-32.153-.509-39.106-16.406-4.906-11.227 23.41-20.715 23.41-20.715s-13.068-14.415-35.907-19.085c-14.359-2.95-36.602-2.01-59.956 18.21-13.819 11.96-16.683 52.44-16.683 52.44s17.069 31.269 50.318 58.274c-6.562 4.294-11.546 11.572-12.806 14.431 66.996 28.857 76.181 69.66 151.81 115.26 35.249 21.25 72.375 42.161 117.49 62.3" fill="#004c54"/><path d="m493.87 404.54c2.685-.555 13.69-2.546 19.82-5.086-23.014-37.327-91.8-110.62-130.24-113.64-.432 6.429-2.926 11.911-5.94 15.691-14.426-26.367-58.474-42.552-76.762-38.319 22.207 81.35-72.005 50.354-79.231 28.023-18.756-57.986-66.368-85.269-66.368-85.269s-15.218 17.337-8.692 56.381c4.814 28.784-13.397 27.89-13.397 27.89-7.262.334-34.817-2.988-43.509-22.217-7.01-15.485 17.527-26.357 17.527-26.357s-35.429-28.286-76.418 6.773c-10.054 8.599-13.793 44.908-13.793 44.908 19.713 32.678 45.694 53.46 56.458 61.184-11.412 4.377-14.966 10.301-14.966 10.301 55.034 25.236 76.618 67.181 123.47 98.352 51.629 34.349 91.152 51.218 91.152 51.218l-14.914-18.771s12.487 5.338 17.933 8.007c49.166 24.13 132.47 50.426 132.47 50.426l-25.977-25.164s43.066 14.75 97.329 26.342c28.898 6.177 89.275 18.885 89.275 18.885s-14.184-41.698-44.316-84.029c18.201 1.281 37.821 2.35 37.821 2.35s-21.096-42.434-68.729-87.881"/><path d="m270.07 461.06c-.627-.221-1.203-.442-1.821-.663.535.206 1.096.396 1.636.586.062.031.123.057.185.077"/><path d="m267.95 460.29c.103.041.196.072.298.108-.098-.036-.195-.067-.298-.108"/><path d="m332.8 362.85s-26.321 12.785-67.824-.777c0 0 57.25 33.943 129.72 19.507-47.021 15.794-89.352 8.29-114.35-.118-14.662-5.657-23.374-10.337-23.374-10.337s3.672 2.685 10.538 6.758c16.977 12.487 40.274 26.007 63.324 35.501 15.999 6.588 47.88 15.105 60.845 15.85 0 0-33.346 5.647-63.766-2.021 0 0 48.163 18.792 94.896 19.831 15.65.35 51.459-1.548 51.459-1.548-51.65 15.331-105.18 18.35-141.76 12.739-20.787-5.153-37.188-10.291-37.188-10.291s2.875 1.455 8.362 3.79c13.186 7.827 67.279 36.895 167.85 52.586 0 0-12.857 1.527-28.579 1.527-16.071 0-47.685-5.431-47.685-5.431 22.896 10.46 66.045 20.602 119.4 25.745 0 0-81.53 9.674-180.23-21.261-.849-.36-1.306-.566-1.306-.566s10.409 7.54 22.166 15.341c8.666 5.75 21.204 14.724 21.204 14.724s-50.621-12.122-119.19-44.676c-19.332-9.175-29.541-14.637-29.541-14.637 2.968 3.43 16.72 15.495 20.047 19.785-50.883-24.953-69.459-41.462-99.694-73.512-26.969-28.6-25.745-33.583-66.677-55.708 0 0 30.153-12.379 60.696 7.514 5.287 3.435 10.27 8.265 15.002 13.31 10.805 12.533 7.231 25.39 21.574 34.627-2.047-4.767-5.416-10.815-5.719-17.054 6.891 9.494 20.51 21.991 35.666 31.032 38.541 22.978 64.116 26.938 64.116 26.938-.987-.345-1.939-.694-2.901-1.044-52.673-21.898-61.272-50.518-61.54-53.522-.571-6.454 19.039 8.002 35.074 9.957-16.869-5.956-31.346-20.299-38.355-36.864-2.973-7.015-3.878-15.007-12.204-21.256-2.35-2.139-5.431-4.248-9.535-6.105-11.072-5.004-18.73-2.479-21.322-.746-1.558 1.034-2.52 2.788-2.52 2.788 5.364-1.512 12.657-.196 19.312 4.006 4.917 3.101 8.568 7.2 10.532 11.355.005 0 .01 0 .016-.005 1.07 2.217 3.075 6.547.129 12.06-1.497 2.813-4.603 4.33-8.146 4.886.221.591 2.067 5.282 7.848 12.214-7.853-5.647-12.94-12.435-15.583-15.506 3.713-.417 6.922-2.155 8.717-5.138 3.544-5.909.242-14.374-7.38-18.915-7.622-4.551-16.668-3.446-20.216 2.453-.442.741-.777 1.538-1.013 2.35-.406-.231-.802-.473-1.214-.684-2.386-1.234-7.195-3.276-7.195-3.276 2.278-.53 5.328-.761 7.226-.401.627-8.347 5.847-21.765 35.234-14.184-8.393-8.26-28.615-7.714-40.87-1.296 1.666-1.245 3.59-2.572 5.878-3.991 36.854-22.896 79.293-1.342 89.655 4.623 2.53 1.62 5.086 3.086 7.673 4.361 0 0-10.738-9.473-18.016-24.166 12.914 16.514 50.426 42.989 100.73 36.874" fill="#fff" stroke="#fff"/><path d="m198.06 399.17c1.414-5.441 10.862.18 10.862.18s-12.775-10.815-17.892-22.49c-.031-.643 0-2.983-1.682-6.274 1.245-.288 2.541-.473 3.631-.355 3.307.36 7.18 2.695 7.18 2.695s.077-6.933-7.293-13.634c8.326 6.249 9.231 14.241 12.204 21.256 7.01 16.565 21.487 30.908 38.355 36.864-16.035-1.954-35.645-16.411-35.074-9.957.268 3.003 8.866 31.623 61.54 53.522-.54-.19-1.831-.653-1.934-.694-48.271-18.01-73.651-46.625-69.896-61.113" fill="#a5acaf"/><path d="m177.96 377.07c2.505-4.176.016-10.255-5.565-13.587-5.58-3.328-12.132-2.644-14.642 1.538-.386.638-.617 1.332-.771 2.047-1.059-.751-2.155-1.445-3.286-2.078.237-.813.571-1.61 1.013-2.35 3.549-5.899 12.595-7.005 20.216-2.453 7.622 4.541 10.924 13.006 7.38 18.915-1.795 2.983-5.004 4.721-8.717 5.138-.854-1.065-1.81-2.278-2.854-3.564 3.086-.036 5.811-1.245 7.226-3.605" fill="#004c54"/><path d="m172.4 363.49c5.58 3.333 8.069 9.411 5.565 13.587-1.414 2.361-4.14 3.569-7.226 3.605-2.15-2.649-4.701-5.621-7.627-8.455-.144-2.361.396-5.359 3.302-7.555 0 0-3.312-.273-5.467 1.317-1.224.905-1.749 1.975-1.965 2.592-.648-.525-1.317-1.023-1.995-1.507.154-.715.386-1.409.771-2.047 2.51-4.181 9.062-4.865 14.642-1.538"/><path d="m160.95 365.99c2.155-1.589 5.467-1.317 5.467-1.317-2.906 2.196-3.446 5.194-3.302 7.555-1.306-1.265-2.68-2.494-4.13-3.646.216-.617.741-1.687 1.965-2.592" fill="#fff"/><g fill="#a5acaf"><path d="m474.27 445.5s-35.81 1.898-51.459 1.548c-46.733-1.039-94.896-19.831-94.896-19.831 30.42 7.668 63.766 2.021 63.766 2.021-12.965-.746-44.846-9.262-60.845-15.85-23.05-9.494-46.347-23.014-63.324-35.501 27.175 16.112 104.45 53.984 202.52 33.089 0 0 6.408 4.932 23.472 23.657 18.098 19.846 21.95 32.092 21.95 32.092s-83.253 8.938-143.53-.334c-13.001-1.995-26.99-5.081-39.415-8.151 36.581 5.611 90.113 2.592 141.76-12.739"/><path d="m282.14 346.65c68.055 16.884 115.35-3.585 121.03-25.087 0 0 .231.113.669.35 2.757 1.497 13.33 6.007 29.247 21.667 16.714 16.452 27.19 29.648 31.33 38.53-69.614 34.894-146.44 13.891-184.07-.643 24.994 8.409 67.325 15.912 114.35.118-72.468 14.436-129.72-19.507-129.72-19.507 41.503 13.562 67.824.777 67.824.777-50.308 6.115-87.82-20.361-100.73-36.874-.993-2.021-1.929-4.13-2.762-6.331 11.649 10.975 24.105 19.877 52.833 27"/><path d="m514.67 526.17c-53.357-5.143-96.506-15.285-119.4-25.745 0 0 31.613 5.431 47.685 5.431 15.722 0 28.579-1.527 28.579-1.527-100.57-15.691-154.66-44.758-167.85-52.586 13.361 5.662 42.295 16.581 83.721 24.789 39.075 7.74 84.477 9.663 102.76 11.484 26.064 25.179 36.298 56.962 36.298 56.962s-45.391-3.662-96.912-13.222c-53.578-9.946-88.205-23.92-95.112-26.846 98.702 30.934 180.23 21.261 180.23 21.261"/><path d="m243.84 319.37s17.151 12.904 46.26 8.224c43.061-6.922 41.827-34.051 41.827-34.051s19.384 8.337 29.186 25.385c0 0-12.158 11.602-34.144 15.485-57.327 10.126-83.129-15.043-83.129-15.043"/><path d="m108.3 330.36c-4.258-1.265-13.459-2.572-9.087 3.981 0 0 5.534 2.983 12.934 6.82 3.183-2.608 6.49-4.428 15.146-5.256 0 0-15.542-4.516-18.993-5.544zm17.866 20.319c-11.057-3.384-25.082-2.417-32.822-.319-8.923-6.151-41.05-19.903-61.488-54.499 1.054-11.726 2.268-26.733 7.087-34.961 19.651-31.037 53.979-19.563 53.979-19.563s-52.154 23.143 3.595 56.88c17.799 10.769 67.037 18.854 96.403 9.411 2.505-.921 5.601-3.122 5.39-3.682-3.045-14.95-15.372-56.813-35.81-68.714-11.299 16.498 18.519 54.386-11.895 55.831 0 0 7.565-11.731 4.305-27.489-1.435-6.917-6.146-25.385 2.273-44.496 0 0 46.234 27.653 59.955 91.476 1.779 6.285 2.983 11.613 5.714 16.437-59.405-23.41-96.686 23.688-96.686 23.688"/></g><path d="m99.216 334.34c-4.371-6.552 4.829-5.246 9.087-3.981 3.451 1.029 18.993 5.544 18.993 5.544-8.655.828-11.962 2.649-15.146 5.256-7.401-3.837-12.934-6.82-12.934-6.82"/></g></svg>