<svg height="196.06" viewBox="0 0 196.062 196.06" width="196.06" xmlns="http://www.w3.org/2000/svg"><g transform="matrix(.5 0 0 .5 1.104 1.054)"><path d="m2.783 194.67c0 105.35 85.712 191.06 191.06 191.06s191.06-85.712 191.06-191.06c.01-105.35-85.7-191.06-191.06-191.06-105.34 0-191.06 85.706-191.06 191.06"/><path d="m193.84 381.54c103.2 0 186.87-83.669 186.87-186.88 0-103.19-83.67-186.86-186.87-186.86-103.2.001-186.87 83.67-186.87 186.87 0 103.21 83.669 186.88 186.88 186.88" fill="#a5acaf"/><path d="m193.84 351.02c86.094 0 155.89-69.794 155.89-155.89 0-86.09-69.79-155.9-155.89-155.9s-155.89 69.8-155.89 155.89c0 86.094 69.794 155.89 155.89 155.89" fill="#fff"/><path d="m194.66 195.34c1.801-63.85 62.116-78.844 77.269-77.469-37.356-2.029-74.225-17.814-77.069-76.888-4.506 54.938-26.55 70.556-77.344 77.075 36.281 1.838 73.012 16.194 77.144 77.281" fill="#eead1e"/><path d="m272.14 274.37c1.8-63.85 61.056-79.606 76.212-78.231-37.481-1.388-73.581-19.2-76.425-78.269-4.5 54.938-26.469 70.95-77.269 77.469 36.281 1.838 73.35 17.944 77.481 79.031" fill="#c60c30"/><path d="m195.6 350.37c1.797-63.862 61.389-77.375 76.55-76-37.356-2.033-74.638-19.954-77.481-79.031-4.506 54.944-25.9 71.444-76.694 77.962 36.281 1.85 73.488 15.994 77.625 77.069" fill="#00539b"/><path d="m68.698 171.71c-1.475.01-2.977.324-4.382.94-1.689.739-2.858 2.08-3.684 3.55-.825 1.487-1.289 2.669-1.393 4.366-.215 3.584 1.577 7.362 4.951 9.468 2.364 1.478 4.096 1.672 6.103 3.602 1.066 1.014.981 3.649.637 4.255-.976 1.728-3.512 1.092-4.135.438-.628-.658-.902-3.026-.777-3.963l-6.693.039c-.258 2.948-.055 4.762.839 6.761.907 2.037 2.179 2.802 3.829 3.593 3.584 1.702 8.42 1.559 11.909-1.698.855-.795 1.164-1.728 1.164-1.728.812-1.973 1.72-4.207 1.088-7.809-.297-1.685-1.028-3.064-1.401-3.593-1.242-1.754-2.162-2.549-5.485-4.169.077 0-1.048-.481-.967-.481-3.516-1.122-4.912-3.27-3.82-5.557.602-1.272 2.879-1.78 3.885-.864.679.623.834 1.955.89 2.982l2.343-.017h4.306c.09-2.965-.546-4.634-1.182-5.751-1.664-2.937-4.78-4.387-8.025-4.365zm56.9.613v32.948h6.314v-32.93zm-38.009 3.786-6.267 3.439v2.157l-2.48.078.025 5.398 2.338-.077.048 12.407c.026 6.589 5.673 5.575 8.656 5.648l.005-7.005c-2.527.039-2.3-.464-2.3-1.724v-9.206l2.411.039-.025-5.531-2.386.052-.025-5.674zm83.335 5.295c-1.064.016-2.132.241-3.124.723-.954.46-1.651.36-3.245 2.333-.756.933-.971 2.317-1.044 3.516-.15 2.536.688 5.88 4.139 6.752 1.93.486 4.126.74 5.154 2.291.563.847.399 1.199.146 1.848-.361.92-2.411.907-3.231.585-.812-.309-1.319-1.259-1.212-2.08l-5.252.034c.099 2.029.116 3.258.89 4.758.748 1.453 2.256 2.51 3.64 2.931 2.819.855 5.923.705 8.222-.713.421-.262 1.604-1.337 2.085-2.201.791-1.444 1.259-3.292.55-5.716-.335-1.169-.37-1.302-.58-1.71-1.251-2.385-2.858-2.849-4.522-3.408.056 0-1.547-.37-1.491-.37-2.931-.331-3.111-1.989-2.725-3.115.322-.933 1.066-1.242 2.028-1.242.817.009 1.62.58 1.771 1.182.103.43.091.924.091 1.487l5.433.025c-.043-2.115-.43-4.307-1.612-5.497-1.448-1.469-3.767-2.445-6.108-2.411zm-10.052.116c-2.072.464-2.622 1.427-3.537 3.039l-.026-2.936-6.085.065v23.38h6.201v-13.551c.069-1.41-.279-3.246 4.96-2.876v-7.121zm-61.69.212c-1.253-.025-2.617.257-4.377 1.026-2.063 1.358-3.258 3.223-3.142 5.364v11.406c.116 2.828 1.342 4.835 3.864 5.759 1.917.408 3.97 1.023 7.254 0 3.094-1.066 3.855-3.056 3.808-4.887l-.013-2.755-5.153.026v.666c-.116 2.643-4.698 2.214-4.711.116l.009-3.215h9.867v-7.238c-.03-2.377-1.164-4.079-3.691-5.454-1.319-.458-2.463-.79-3.716-.815zm17.106 0c-1.253-.025-2.616.257-4.378 1.026-2.063 1.358-3.258 3.223-3.142 5.364v11.406c.116 2.828 1.34 4.835 3.863 5.759 1.921.408 3.971 1.023 7.255 0 3.094-1.066 3.851-3.056 3.808-4.887l-.013-2.755-5.154.026v.666c-.116 2.643-4.697 2.214-4.71.116l.009-3.215h9.867v-7.238c-.03-2.377-1.164-4.079-3.691-5.454-1.319-.458-2.462-.79-3.715-.815zm25.115 0c-1.253-.025-2.615.257-4.377 1.026-2.067 1.358-3.258 3.223-3.142 5.364v11.406c.116 2.828 1.341 4.835 3.863 5.759 1.921.408 3.971 1.023 7.255 0 3.094-1.066 3.854-3.056 3.803-4.887l-.008-2.755-5.157.026v.666c-.112 2.643-4.694 2.214-4.702.116l-.022-3.215h9.894v-7.238c-.026-2.377-1.165-4.079-3.688-5.454-1.324-.458-2.467-.79-3.72-.815zm-42.32 5.371c1.467-.073 3.037 1.095 2.525 3.267l-4.668-.018c-.367-2.156.848-3.185 2.143-3.249zm17.104 0c1.467-.073 3.037 1.095 2.525 3.267l-4.667-.018c-.367-2.156.847-3.185 2.142-3.249zm25.116 0c1.467-.073 3.037 1.095 2.525 3.267l-4.667-.018c-.367-2.156.847-3.185 2.142-3.249z"/></g></svg>